<?xml version="1.0" standalone="no"?>
<!DOCTYPE svg PUBLIC "-//W3C//DTD SVG 1.1//EN" 
  "http://www.w3.org/Graphics/SVG/1.1/DTD/svg11.dtd">
<svg xmlns="http://www.w3.org/2000/svg"
     version="1.1" width="320" height="560">
    <rect x="100px" y="0px" width="20px" height="20px" fill="#000000"/>
    <rect x="120px" y="0px" width="20px" height="20px" fill="#000000"/>
    <rect x="140px" y="0px" width="20px" height="20px" fill="#000000"/>
    <rect x="160px" y="0px" width="20px" height="20px" fill="#000000"/>
    <rect x="180px" y="0px" width="20px" height="20px" fill="#000000"/>
    <rect x="80px" y="20px" width="20px" height="20px" fill="#000000"/>
    <rect x="100px" y="20px" width="20px" height="20px" fill="#584848"/>
    <rect x="120px" y="20px" width="20px" height="20px" fill="#c0b0b0"/>
    <rect x="140px" y="20px" width="20px" height="20px" fill="#887878"/>
    <rect x="160px" y="20px" width="20px" height="20px" fill="#584848"/>
    <rect x="180px" y="20px" width="20px" height="20px" fill="#584848"/>
    <rect x="200px" y="20px" width="20px" height="20px" fill="#000000"/>
    <rect x="40px" y="40px" width="20px" height="20px" fill="#000000"/>
    <rect x="60px" y="40px" width="20px" height="20px" fill="#000000"/>
    <rect x="80px" y="40px" width="20px" height="20px" fill="#000000"/>
    <rect x="100px" y="40px" width="20px" height="20px" fill="#000000"/>
    <rect x="120px" y="40px" width="20px" height="20px" fill="#000000"/>
    <rect x="140px" y="40px" width="20px" height="20px" fill="#000000"/>
    <rect x="160px" y="40px" width="20px" height="20px" fill="#887878"/>
    <rect x="180px" y="40px" width="20px" height="20px" fill="#887878"/>
    <rect x="200px" y="40px" width="20px" height="20px" fill="#584848"/>
    <rect x="220px" y="40px" width="20px" height="20px" fill="#000000"/>
    <rect x="20px" y="60px" width="20px" height="20px" fill="#000000"/>
    <rect x="40px" y="60px" width="20px" height="20px" fill="#f8d098"/>
    <rect x="60px" y="60px" width="20px" height="20px" fill="#f8d098"/>
    <rect x="80px" y="60px" width="20px" height="20px" fill="#f8d098"/>
    <rect x="100px" y="60px" width="20px" height="20px" fill="#f8d098"/>
    <rect x="120px" y="60px" width="20px" height="20px" fill="#f8d098"/>
    <rect x="140px" y="60px" width="20px" height="20px" fill="#f8d098"/>
    <rect x="160px" y="60px" width="20px" height="20px" fill="#000000"/>
    <rect x="180px" y="60px" width="20px" height="20px" fill="#000000"/>
    <rect x="200px" y="60px" width="20px" height="20px" fill="#584848"/>
    <rect x="220px" y="60px" width="20px" height="20px" fill="#000000"/>
    <rect x="20px" y="80px" width="20px" height="20px" fill="#000000"/>
    <rect x="40px" y="80px" width="20px" height="20px" fill="#f8d098"/>
    <rect x="60px" y="80px" width="20px" height="20px" fill="#f8b030"/>
    <rect x="80px" y="80px" width="20px" height="20px" fill="#f8b030"/>
    <rect x="100px" y="80px" width="20px" height="20px" fill="#f8b030"/>
    <rect x="120px" y="80px" width="20px" height="20px" fill="#f8b030"/>
    <rect x="140px" y="80px" width="20px" height="20px" fill="#f8b030"/>
    <rect x="160px" y="80px" width="20px" height="20px" fill="#f8d098"/>
    <rect x="180px" y="80px" width="20px" height="20px" fill="#f8b030"/>
    <rect x="200px" y="80px" width="20px" height="20px" fill="#000000"/>
    <rect x="220px" y="80px" width="20px" height="20px" fill="#000000"/>
    <rect x="240px" y="80px" width="20px" height="20px" fill="#000000"/>
    <rect x="20px" y="100px" width="20px" height="20px" fill="#000000"/>
    <rect x="40px" y="100px" width="20px" height="20px" fill="#f8b030"/>
    <rect x="60px" y="100px" width="20px" height="20px" fill="#000000"/>
    <rect x="80px" y="100px" width="20px" height="20px" fill="#000000"/>
    <rect x="100px" y="100px" width="20px" height="20px" fill="#000000"/>
    <rect x="120px" y="100px" width="20px" height="20px" fill="#000000"/>
    <rect x="140px" y="100px" width="20px" height="20px" fill="#f8b030"/>
    <rect x="160px" y="100px" width="20px" height="20px" fill="#f8b030"/>
    <rect x="180px" y="100px" width="20px" height="20px" fill="#f8d098"/>
    <rect x="200px" y="100px" width="20px" height="20px" fill="#f8b030"/>
    <rect x="220px" y="100px" width="20px" height="20px" fill="#f8b030"/>
    <rect x="240px" y="100px" width="20px" height="20px" fill="#000000"/>
    <rect x="40px" y="120px" width="20px" height="20px" fill="#000000"/>
    <rect x="60px" y="120px" width="20px" height="20px" fill="#000000"/>
    <rect x="80px" y="120px" width="20px" height="20px" fill="#e86050"/>
    <rect x="100px" y="120px" width="20px" height="20px" fill="#e86050"/>
    <rect x="120px" y="120px" width="20px" height="20px" fill="#e86050"/>
    <rect x="140px" y="120px" width="20px" height="20px" fill="#000000"/>
    <rect x="160px" y="120px" width="20px" height="20px" fill="#000000"/>
    <rect x="180px" y="120px" width="20px" height="20px" fill="#f8b030"/>
    <rect x="200px" y="120px" width="20px" height="20px" fill="#000000"/>
    <rect x="220px" y="120px" width="20px" height="20px" fill="#000000"/>
    <rect x="240px" y="120px" width="20px" height="20px" fill="#f8b030"/>
    <rect x="260px" y="120px" width="20px" height="20px" fill="#000000"/>
    <rect x="60px" y="140px" width="20px" height="20px" fill="#000000"/>
    <rect x="80px" y="140px" width="20px" height="20px" fill="#f09058"/>
    <rect x="100px" y="140px" width="20px" height="20px" fill="#000000"/>
    <rect x="120px" y="140px" width="20px" height="20px" fill="#f09058"/>
    <rect x="140px" y="140px" width="20px" height="20px" fill="#e86050"/>
    <rect x="160px" y="140px" width="20px" height="20px" fill="#000000"/>
    <rect x="180px" y="140px" width="20px" height="20px" fill="#000000"/>
    <rect x="200px" y="140px" width="20px" height="20px" fill="#f8d098"/>
    <rect x="220px" y="140px" width="20px" height="20px" fill="#f8d098"/>
    <rect x="240px" y="140px" width="20px" height="20px" fill="#000000"/>
    <rect x="260px" y="140px" width="20px" height="20px" fill="#000000"/>
    <rect x="20px" y="160px" width="20px" height="20px" fill="#000000"/>
    <rect x="40px" y="160px" width="20px" height="20px" fill="#000000"/>
    <rect x="60px" y="160px" width="20px" height="20px" fill="#000000"/>
    <rect x="80px" y="160px" width="20px" height="20px" fill="#f09058"/>
    <rect x="100px" y="160px" width="20px" height="20px" fill="#000000"/>
    <rect x="120px" y="160px" width="20px" height="20px" fill="#f09058"/>
    <rect x="140px" y="160px" width="20px" height="20px" fill="#e86050"/>
    <rect x="160px" y="160px" width="20px" height="20px" fill="#000000"/>
    <rect x="180px" y="160px" width="20px" height="20px" fill="#f8d098"/>
    <rect x="200px" y="160px" width="20px" height="20px" fill="#000000"/>
    <rect x="220px" y="160px" width="20px" height="20px" fill="#000000"/>
    <rect x="240px" y="160px" width="20px" height="20px" fill="#f8b030"/>
    <rect x="260px" y="160px" width="20px" height="20px" fill="#000000"/>
    <rect x="0px" y="180px" width="20px" height="20px" fill="#000000"/>
    <rect x="20px" y="180px" width="20px" height="20px" fill="#f8b880"/>
    <rect x="40px" y="180px" width="20px" height="20px" fill="#f8b880"/>
    <rect x="60px" y="180px" width="20px" height="20px" fill="#f8b880"/>
    <rect x="80px" y="180px" width="20px" height="20px" fill="#f09058"/>
    <rect x="100px" y="180px" width="20px" height="20px" fill="#f09058"/>
    <rect x="120px" y="180px" width="20px" height="20px" fill="#f09058"/>
    <rect x="140px" y="180px" width="20px" height="20px" fill="#e86050"/>
    <rect x="160px" y="180px" width="20px" height="20px" fill="#000000"/>
    <rect x="180px" y="180px" width="20px" height="20px" fill="#f8d098"/>
    <rect x="200px" y="180px" width="20px" height="20px" fill="#000000"/>
    <rect x="220px" y="180px" width="20px" height="20px" fill="#000000"/>
    <rect x="240px" y="180px" width="20px" height="20px" fill="#f8b030"/>
    <rect x="260px" y="180px" width="20px" height="20px" fill="#000000"/>
    <rect x="0px" y="200px" width="20px" height="20px" fill="#000000"/>
    <rect x="20px" y="200px" width="20px" height="20px" fill="#f09058"/>
    <rect x="40px" y="200px" width="20px" height="20px" fill="#f09058"/>
    <rect x="60px" y="200px" width="20px" height="20px" fill="#f09058"/>
    <rect x="80px" y="200px" width="20px" height="20px" fill="#f09058"/>
    <rect x="100px" y="200px" width="20px" height="20px" fill="#e86050"/>
    <rect x="120px" y="200px" width="20px" height="20px" fill="#000000"/>
    <rect x="140px" y="200px" width="20px" height="20px" fill="#e86050"/>
    <rect x="160px" y="200px" width="20px" height="20px" fill="#000000"/>
    <rect x="180px" y="200px" width="20px" height="20px" fill="#f8d098"/>
    <rect x="200px" y="200px" width="20px" height="20px" fill="#000000"/>
    <rect x="220px" y="200px" width="20px" height="20px" fill="#000000"/>
    <rect x="240px" y="200px" width="20px" height="20px" fill="#f8b030"/>
    <rect x="260px" y="200px" width="20px" height="20px" fill="#000000"/>
    <rect x="20px" y="220px" width="20px" height="20px" fill="#000000"/>
    <rect x="40px" y="220px" width="20px" height="20px" fill="#e86050"/>
    <rect x="60px" y="220px" width="20px" height="20px" fill="#e86050"/>
    <rect x="80px" y="220px" width="20px" height="20px" fill="#e86050"/>
    <rect x="100px" y="220px" width="20px" height="20px" fill="#000000"/>
    <rect x="120px" y="220px" width="20px" height="20px" fill="#000000"/>
    <rect x="140px" y="220px" width="20px" height="20px" fill="#000000"/>
    <rect x="160px" y="220px" width="20px" height="20px" fill="#e86050"/>
    <rect x="180px" y="220px" width="20px" height="20px" fill="#000000"/>
    <rect x="200px" y="220px" width="20px" height="20px" fill="#f8d098"/>
    <rect x="220px" y="220px" width="20px" height="20px" fill="#f8b030"/>
    <rect x="240px" y="220px" width="20px" height="20px" fill="#000000"/>
    <rect x="40px" y="240px" width="20px" height="20px" fill="#000000"/>
    <rect x="60px" y="240px" width="20px" height="20px" fill="#000000"/>
    <rect x="80px" y="240px" width="20px" height="20px" fill="#000000"/>
    <rect x="100px" y="240px" width="20px" height="20px" fill="#000000"/>
    <rect x="120px" y="240px" width="20px" height="20px" fill="#b05800"/>
    <rect x="140px" y="240px" width="20px" height="20px" fill="#b05800"/>
    <rect x="160px" y="240px" width="20px" height="20px" fill="#b05800"/>
    <rect x="180px" y="240px" width="20px" height="20px" fill="#b05800"/>
    <rect x="200px" y="240px" width="20px" height="20px" fill="#000000"/>
    <rect x="220px" y="240px" width="20px" height="20px" fill="#000000"/>
    <rect x="20px" y="260px" width="20px" height="20px" fill="#000000"/>
    <rect x="40px" y="260px" width="20px" height="20px" fill="#000000"/>
    <rect x="60px" y="260px" width="20px" height="20px" fill="#000000"/>
    <rect x="80px" y="260px" width="20px" height="20px" fill="#000000"/>
    <rect x="100px" y="260px" width="20px" height="20px" fill="#000000"/>
    <rect x="120px" y="260px" width="20px" height="20px" fill="#000000"/>
    <rect x="140px" y="260px" width="20px" height="20px" fill="#000000"/>
    <rect x="160px" y="260px" width="20px" height="20px" fill="#000000"/>
    <rect x="180px" y="260px" width="20px" height="20px" fill="#000000"/>
    <rect x="200px" y="260px" width="20px" height="20px" fill="#000000"/>
    <rect x="220px" y="260px" width="20px" height="20px" fill="#c0b0b0"/>
    <rect x="240px" y="260px" width="20px" height="20px" fill="#000000"/>
    <rect x="260px" y="260px" width="20px" height="20px" fill="#000000"/>
    <rect x="0px" y="280px" width="20px" height="20px" fill="#000000"/>
    <rect x="20px" y="280px" width="20px" height="20px" fill="#f8b880"/>
    <rect x="40px" y="280px" width="20px" height="20px" fill="#f8b880"/>
    <rect x="60px" y="280px" width="20px" height="20px" fill="#f09058"/>
    <rect x="80px" y="280px" width="20px" height="20px" fill="#f09058"/>
    <rect x="100px" y="280px" width="20px" height="20px" fill="#000000"/>
    <rect x="120px" y="280px" width="20px" height="20px" fill="#f8b030"/>
    <rect x="140px" y="280px" width="20px" height="20px" fill="#f8b030"/>
    <rect x="160px" y="280px" width="20px" height="20px" fill="#d08018"/>
    <rect x="180px" y="280px" width="20px" height="20px" fill="#b05800"/>
    <rect x="200px" y="280px" width="20px" height="20px" fill="#000000"/>
    <rect x="220px" y="280px" width="20px" height="20px" fill="#c0b0b0"/>
    <rect x="240px" y="280px" width="20px" height="20px" fill="#000000"/>
    <rect x="260px" y="280px" width="20px" height="20px" fill="#584848"/>
    <rect x="280px" y="280px" width="20px" height="20px" fill="#000000"/>
    <rect x="0px" y="300px" width="20px" height="20px" fill="#000000"/>
    <rect x="20px" y="300px" width="20px" height="20px" fill="#f09058"/>
    <rect x="40px" y="300px" width="20px" height="20px" fill="#f09058"/>
    <rect x="60px" y="300px" width="20px" height="20px" fill="#f09058"/>
    <rect x="80px" y="300px" width="20px" height="20px" fill="#e86050"/>
    <rect x="100px" y="300px" width="20px" height="20px" fill="#000000"/>
    <rect x="120px" y="300px" width="20px" height="20px" fill="#f8b030"/>
    <rect x="140px" y="300px" width="20px" height="20px" fill="#d08018"/>
    <rect x="160px" y="300px" width="20px" height="20px" fill="#d08018"/>
    <rect x="180px" y="300px" width="20px" height="20px" fill="#b05800"/>
    <rect x="200px" y="300px" width="20px" height="20px" fill="#000000"/>
    <rect x="220px" y="300px" width="20px" height="20px" fill="#f8f8f8"/>
    <rect x="240px" y="300px" width="20px" height="20px" fill="#000000"/>
    <rect x="260px" y="300px" width="20px" height="20px" fill="#887878"/>
    <rect x="280px" y="300px" width="20px" height="20px" fill="#000000"/>
    <rect x="20px" y="320px" width="20px" height="20px" fill="#000000"/>
    <rect x="40px" y="320px" width="20px" height="20px" fill="#e86050"/>
    <rect x="60px" y="320px" width="20px" height="20px" fill="#e86050"/>
    <rect x="80px" y="320px" width="20px" height="20px" fill="#e86050"/>
    <rect x="100px" y="320px" width="20px" height="20px" fill="#000000"/>
    <rect x="120px" y="320px" width="20px" height="20px" fill="#d08018"/>
    <rect x="140px" y="320px" width="20px" height="20px" fill="#d08018"/>
    <rect x="160px" y="320px" width="20px" height="20px" fill="#d08018"/>
    <rect x="180px" y="320px" width="20px" height="20px" fill="#b05800"/>
    <rect x="200px" y="320px" width="20px" height="20px" fill="#000000"/>
    <rect x="220px" y="320px" width="20px" height="20px" fill="#f8f8f8"/>
    <rect x="240px" y="320px" width="20px" height="20px" fill="#000000"/>
    <rect x="260px" y="320px" width="20px" height="20px" fill="#584848"/>
    <rect x="280px" y="320px" width="20px" height="20px" fill="#887878"/>
    <rect x="300px" y="320px" width="20px" height="20px" fill="#000000"/>
    <rect x="40px" y="340px" width="20px" height="20px" fill="#000000"/>
    <rect x="60px" y="340px" width="20px" height="20px" fill="#000000"/>
    <rect x="80px" y="340px" width="20px" height="20px" fill="#000000"/>
    <rect x="100px" y="340px" width="20px" height="20px" fill="#000000"/>
    <rect x="120px" y="340px" width="20px" height="20px" fill="#b05800"/>
    <rect x="140px" y="340px" width="20px" height="20px" fill="#b05800"/>
    <rect x="160px" y="340px" width="20px" height="20px" fill="#b05800"/>
    <rect x="180px" y="340px" width="20px" height="20px" fill="#b05800"/>
    <rect x="200px" y="340px" width="20px" height="20px" fill="#000000"/>
    <rect x="220px" y="340px" width="20px" height="20px" fill="#f8f8f8"/>
    <rect x="240px" y="340px" width="20px" height="20px" fill="#000000"/>
    <rect x="260px" y="340px" width="20px" height="20px" fill="#584848"/>
    <rect x="280px" y="340px" width="20px" height="20px" fill="#887878"/>
    <rect x="300px" y="340px" width="20px" height="20px" fill="#000000"/>
    <rect x="20px" y="360px" width="20px" height="20px" fill="#000000"/>
    <rect x="40px" y="360px" width="20px" height="20px" fill="#887878"/>
    <rect x="60px" y="360px" width="20px" height="20px" fill="#000000"/>
    <rect x="80px" y="360px" width="20px" height="20px" fill="#000000"/>
    <rect x="100px" y="360px" width="20px" height="20px" fill="#000000"/>
    <rect x="120px" y="360px" width="20px" height="20px" fill="#000000"/>
    <rect x="140px" y="360px" width="20px" height="20px" fill="#000000"/>
    <rect x="160px" y="360px" width="20px" height="20px" fill="#000000"/>
    <rect x="180px" y="360px" width="20px" height="20px" fill="#000000"/>
    <rect x="200px" y="360px" width="20px" height="20px" fill="#000000"/>
    <rect x="220px" y="360px" width="20px" height="20px" fill="#f8f8f8"/>
    <rect x="240px" y="360px" width="20px" height="20px" fill="#000000"/>
    <rect x="260px" y="360px" width="20px" height="20px" fill="#584848"/>
    <rect x="280px" y="360px" width="20px" height="20px" fill="#584848"/>
    <rect x="300px" y="360px" width="20px" height="20px" fill="#000000"/>
    <rect x="20px" y="380px" width="20px" height="20px" fill="#000000"/>
    <rect x="40px" y="380px" width="20px" height="20px" fill="#f8f8f8"/>
    <rect x="60px" y="380px" width="20px" height="20px" fill="#c0b0b0"/>
    <rect x="80px" y="380px" width="20px" height="20px" fill="#c0b0b0"/>
    <rect x="100px" y="380px" width="20px" height="20px" fill="#f8f8f8"/>
    <rect x="120px" y="380px" width="20px" height="20px" fill="#f8f8f8"/>
    <rect x="140px" y="380px" width="20px" height="20px" fill="#887878"/>
    <rect x="160px" y="380px" width="20px" height="20px" fill="#584848"/>
    <rect x="180px" y="380px" width="20px" height="20px" fill="#584848"/>
    <rect x="200px" y="380px" width="20px" height="20px" fill="#000000"/>
    <rect x="220px" y="380px" width="20px" height="20px" fill="#f8f8f8"/>
    <rect x="240px" y="380px" width="20px" height="20px" fill="#f8f8f8"/>
    <rect x="260px" y="380px" width="20px" height="20px" fill="#000000"/>
    <rect x="280px" y="380px" width="20px" height="20px" fill="#584848"/>
    <rect x="300px" y="380px" width="20px" height="20px" fill="#000000"/>
    <rect x="20px" y="400px" width="20px" height="20px" fill="#000000"/>
    <rect x="40px" y="400px" width="20px" height="20px" fill="#f8f8f8"/>
    <rect x="60px" y="400px" width="20px" height="20px" fill="#c0b0b0"/>
    <rect x="80px" y="400px" width="20px" height="20px" fill="#c0b0b0"/>
    <rect x="100px" y="400px" width="20px" height="20px" fill="#f8f8f8"/>
    <rect x="120px" y="400px" width="20px" height="20px" fill="#f8f8f8"/>
    <rect x="140px" y="400px" width="20px" height="20px" fill="#887878"/>
    <rect x="160px" y="400px" width="20px" height="20px" fill="#887878"/>
    <rect x="180px" y="400px" width="20px" height="20px" fill="#584848"/>
    <rect x="200px" y="400px" width="20px" height="20px" fill="#584848"/>
    <rect x="220px" y="400px" width="20px" height="20px" fill="#000000"/>
    <rect x="240px" y="400px" width="20px" height="20px" fill="#f8f8f8"/>
    <rect x="260px" y="400px" width="20px" height="20px" fill="#000000"/>
    <rect x="280px" y="400px" width="20px" height="20px" fill="#000000"/>
    <rect x="20px" y="420px" width="20px" height="20px" fill="#000000"/>
    <rect x="40px" y="420px" width="20px" height="20px" fill="#887878"/>
    <rect x="60px" y="420px" width="20px" height="20px" fill="#887878"/>
    <rect x="80px" y="420px" width="20px" height="20px" fill="#c0b0b0"/>
    <rect x="100px" y="420px" width="20px" height="20px" fill="#c0b0b0"/>
    <rect x="120px" y="420px" width="20px" height="20px" fill="#887878"/>
    <rect x="140px" y="420px" width="20px" height="20px" fill="#887878"/>
    <rect x="160px" y="420px" width="20px" height="20px" fill="#887878"/>
    <rect x="180px" y="420px" width="20px" height="20px" fill="#584848"/>
    <rect x="200px" y="420px" width="20px" height="20px" fill="#584848"/>
    <rect x="220px" y="420px" width="20px" height="20px" fill="#000000"/>
    <rect x="240px" y="420px" width="20px" height="20px" fill="#c0b0b0"/>
    <rect x="260px" y="420px" width="20px" height="20px" fill="#000000"/>
    <rect x="280px" y="420px" width="20px" height="20px" fill="#000000"/>
    <rect x="40px" y="440px" width="20px" height="20px" fill="#000000"/>
    <rect x="60px" y="440px" width="20px" height="20px" fill="#887878"/>
    <rect x="80px" y="440px" width="20px" height="20px" fill="#887878"/>
    <rect x="100px" y="440px" width="20px" height="20px" fill="#887878"/>
    <rect x="120px" y="440px" width="20px" height="20px" fill="#887878"/>
    <rect x="140px" y="440px" width="20px" height="20px" fill="#887878"/>
    <rect x="160px" y="440px" width="20px" height="20px" fill="#887878"/>
    <rect x="180px" y="440px" width="20px" height="20px" fill="#887878"/>
    <rect x="200px" y="440px" width="20px" height="20px" fill="#584848"/>
    <rect x="220px" y="440px" width="20px" height="20px" fill="#000000"/>
    <rect x="240px" y="440px" width="20px" height="20px" fill="#c0b0b0"/>
    <rect x="260px" y="440px" width="20px" height="20px" fill="#000000"/>
    <rect x="40px" y="460px" width="20px" height="20px" fill="#000000"/>
    <rect x="60px" y="460px" width="20px" height="20px" fill="#584848"/>
    <rect x="80px" y="460px" width="20px" height="20px" fill="#584848"/>
    <rect x="100px" y="460px" width="20px" height="20px" fill="#584848"/>
    <rect x="120px" y="460px" width="20px" height="20px" fill="#584848"/>
    <rect x="140px" y="460px" width="20px" height="20px" fill="#584848"/>
    <rect x="160px" y="460px" width="20px" height="20px" fill="#584848"/>
    <rect x="180px" y="460px" width="20px" height="20px" fill="#584848"/>
    <rect x="200px" y="460px" width="20px" height="20px" fill="#584848"/>
    <rect x="220px" y="460px" width="20px" height="20px" fill="#584848"/>
    <rect x="240px" y="460px" width="20px" height="20px" fill="#000000"/>
    <rect x="60px" y="480px" width="20px" height="20px" fill="#000000"/>
    <rect x="80px" y="480px" width="20px" height="20px" fill="#000000"/>
    <rect x="100px" y="480px" width="20px" height="20px" fill="#000000"/>
    <rect x="120px" y="480px" width="20px" height="20px" fill="#000000"/>
    <rect x="140px" y="480px" width="20px" height="20px" fill="#000000"/>
    <rect x="160px" y="480px" width="20px" height="20px" fill="#000000"/>
    <rect x="180px" y="480px" width="20px" height="20px" fill="#000000"/>
    <rect x="200px" y="480px" width="20px" height="20px" fill="#000000"/>
    <rect x="220px" y="480px" width="20px" height="20px" fill="#000000"/>
    <rect x="100px" y="500px" width="20px" height="20px" fill="#000000"/>
    <rect x="120px" y="500px" width="20px" height="20px" fill="#f0c830"/>
    <rect x="140px" y="500px" width="20px" height="20px" fill="#e08030"/>
    <rect x="160px" y="500px" width="20px" height="20px" fill="#e08030"/>
    <rect x="180px" y="500px" width="20px" height="20px" fill="#a85000"/>
    <rect x="200px" y="500px" width="20px" height="20px" fill="#a85000"/>
    <rect x="220px" y="500px" width="20px" height="20px" fill="#000000"/>
    <rect x="80px" y="520px" width="20px" height="20px" fill="#000000"/>
    <rect x="100px" y="520px" width="20px" height="20px" fill="#f0c830"/>
    <rect x="120px" y="520px" width="20px" height="20px" fill="#e08030"/>
    <rect x="140px" y="520px" width="20px" height="20px" fill="#e08030"/>
    <rect x="160px" y="520px" width="20px" height="20px" fill="#a85000"/>
    <rect x="180px" y="520px" width="20px" height="20px" fill="#a85000"/>
    <rect x="200px" y="520px" width="20px" height="20px" fill="#a85000"/>
    <rect x="220px" y="520px" width="20px" height="20px" fill="#000000"/>
    <rect x="80px" y="540px" width="20px" height="20px" fill="#000000"/>
    <rect x="100px" y="540px" width="20px" height="20px" fill="#000000"/>
    <rect x="120px" y="540px" width="20px" height="20px" fill="#000000"/>
    <rect x="140px" y="540px" width="20px" height="20px" fill="#000000"/>
    <rect x="160px" y="540px" width="20px" height="20px" fill="#000000"/>
    <rect x="180px" y="540px" width="20px" height="20px" fill="#000000"/>
    <rect x="200px" y="540px" width="20px" height="20px" fill="#000000"/>
    <rect x="220px" y="540px" width="20px" height="20px" fill="#000000"/>
</svg>